HIERARCHY
ROOT Hips
{
	OFFSET -0.001795 -0.223333 0.028219
	CHANNELS 6 Xposition Yposition Zposition Zrotation Yrotation Xrotation 
	JOINT LeftUpLeg
	{
		OFFSET 0.069520 -0.091406 -0.006815
		CHANNELS 3 Zrotation Yrotation Xrotation
		JOINT LeftLeg
		{
			OFFSET 0.034277 -0.375199 -0.004496
			CHANNELS 3 Zrotation Yrotation Xrotation
			JOINT LeftFoot
			{
				OFFSET -0.013596 -0.397961 -0.043693
				CHANNELS 3 Zrotation Yrotation Xrotation
				JOINT LeftToe
				{
					OFFSET 0.026358 -0.055791 0.119288
					CHANNELS 3 Zrotation Yrotation Xrotation
					End Site
					{
						OFFSET 0.000000 0.000000 0.000000
					}
				}
			}
		}
	}
	JOINT RightUpLeg
	{
		OFFSET -0.067670 -0.090522 -0.004320
		CHANNELS 3 Zrotation Yrotation Xrotation
		JOINT RightLeg
		{
			OFFSET -0.038290 -0.382569 -0.008850
			CHANNELS 3 Zrotation Yrotation Xrotation
			JOINT RightFoot
			{
				OFFSET 0.015774 -0.398415 -0.042312
				CHANNELS 3 Zrotation Yrotation Xrotation
				JOINT RightToe
				{
					OFFSET -0.025372 -0.048144 0.123348
					CHANNELS 3 Zrotation Yrotation Xrotation
					End Site
					{
						OFFSET 0.000000 0.000000 0.000000
					}
				}
			}
		}
	}
	JOINT Spine
	{
		OFFSET -0.002533 0.108963 -0.026696
		CHANNELS 3 Zrotation Yrotation Xrotation
		JOINT Spine1
		{
			OFFSET 0.005487 0.135180 0.001092
			CHANNELS 3 Zrotation Yrotation Xrotation
			JOINT Spine2
			{
				OFFSET 0.001457 0.052922 0.025425
				CHANNELS 3 Zrotation Yrotation Xrotation
				JOINT Neck
				{
					OFFSET -0.002778 0.213870 -0.042857
					CHANNELS 3 Zrotation Yrotation Xrotation
					JOINT Head
					{
						OFFSET 0.005152 0.064970 0.051349
						CHANNELS 3 Zrotation Yrotation Xrotation
						End Site
						{
							OFFSET 0.000000 0.000000 0.000000
						}
					}
				}
				JOINT LeftShoulder
				{
					OFFSET 0.078845 0.121749 -0.034090
					CHANNELS 3 Zrotation Yrotation Xrotation
					JOINT LeftArm
					{
						OFFSET 0.090977 0.030469 -0.008868
						CHANNELS 3 Zrotation Yrotation Xrotation
						JOINT LeftForeArm
						{
							OFFSET 0.259612 -0.012772 -0.027456
							CHANNELS 3 Zrotation Yrotation Xrotation
							JOINT LeftHand
							{
								OFFSET 0.249234 0.008986 -0.001171
								CHANNELS 3 Zrotation Yrotation Xrotation
								End Site
								{
									OFFSET 0.000000 0.000000 0.000000
								}
							}
						}
					}
				}
				JOINT RightShoulder
				{
					OFFSET -0.081759 0.118833 -0.038615
					CHANNELS 3 Zrotation Yrotation Xrotation
					JOINT RightArm
					{
						OFFSET -0.096012 0.032551 -0.009143
						CHANNELS 3 Zrotation Yrotation Xrotation
						JOINT RightForeArm
						{
							OFFSET -0.253742 -0.013329 -0.021401
							CHANNELS 3 Zrotation Yrotation Xrotation
							JOINT RightHand
							{
								OFFSET -0.255298 0.007772 -0.005559
								CHANNELS 3 Zrotation Yrotation Xrotation
								End Site
								{
									OFFSET 0.000000 0.000000 0.000000
								}
							}
						}
					}
				}
			}
		}
	}
}
MOTION
Frames: 11
Frame Time: 0.050000
0.000000 0.607525 0.000000 -2.981808 -4.503649 24.978152 8.842050 2.475122 52.417274 -1.796469 3.320477 -66.948279 7.669376 20.761097 113.733404 0.000000 0.000000 0.000000 -17.325319 5.535915 47.841706 11.094315 4.115554 -75.043667 -33.001499 -21.599300 123.145004 0.000000 0.000000 0.000000 0.125465 2.117050 -30.968089 1.047652 4.212123 -92.269494 -2.628131 -0.283920 110.734386 12.759080 2.711031 -109.423271 0.000000 0.000000 0.000000 -17.661737 14.603343 -3.697165 -51.025375 -1.341097 -30.314030 131.800322 55.477402 141.254622 0.000000 0.000000 0.000000 32.187479 -11.083363 -1.066251 55.240717 22.735668 -23.505631 -28.333907 -70.853250 48.504333 0.000000 0.000000 0.000000 
-0.001638 0.610346 0.000348 -2.073292 -5.666918 24.651339 8.491856 3.104786 53.044145 -3.442447 2.680333 -67.137811 6.947241 20.720654 111.988365 0.000000 0.000000 0.000000 -18.146587 6.483430 48.631783 10.388501 3.961874 -76.608256 -33.105431 -21.438263 124.164999 0.000000 0.000000 0.000000 -3.432380 1.626871 -30.663079 4.305759 6.491589 -97.922905 -7.819976 0.797451 115.029874 7.593813 4.092562 -111.113370 0.000000 0.000000 0.000000 -17.048465 18.208366 -6.188191 -51.072030 3.939697 -33.103952 123.693971 48.291443 122.552528 0.000000 0.000000 0.000000 27.700604 -11.072519 -2.706072 57.695893 22.507973 -24.465078 -42.351347 -69.094846 59.396251 0.000000 0.000000 0.000000 
-0.002749 0.617001 0.000608 -3.259117 -8.082275 24.623990 7.797056 4.457892 53.491145 -4.346217 2.848515 -68.137265 14.076624 21.921896 114.588101 0.000000 0.000000 0.000000 -19.153718 7.816243 47.070743 11.427796 5.357107 -76.340821 -36.467712 -21.523618 124.105517 0.000000 0.000000 0.000000 -2.074482 2.581388 -34.456818 17.023437 12.904796 -95.455071 -11.653499 15.817930 117.437229 16.029219 3.378003 -108.661563 0.000000 0.000000 0.000000 -10.293399 19.678140 -9.851965 -53.566712 10.175878 -38.446193 117.884001 39.133653 102.766848 0.000000 0.000000 0.000000 28.902488 -9.754661 3.486728 55.686653 29.872551 -24.165449 -28.468122 -70.027637 53.734645 0.000000 0.000000 0.000000 
-0.004060 0.621631 0.000049 -3.597226 -9.582039 24.376499 6.312892 6.063568 54.874621 -4.176265 3.111622 -67.779953 15.439547 22.387150 107.293338 0.000000 0.000000 0.000000 -20.418031 8.945656 46.141749 12.032525 6.059015 -75.963063 -30.539305 -20.409523 127.602408 0.000000 0.000000 0.000000 -1.378844 2.925127 -34.117832 10.964076 9.597540 -89.935897 -9.312467 7.088004 110.926088 5.640179 3.809829 -108.188748 0.000000 0.000000 0.000000 -13.196872 21.336188 -10.093021 -52.006653 13.808686 -35.245851 118.267434 38.222503 100.006696 0.000000 0.000000 0.000000 27.499084 -10.069104 -0.614008 57.163472 28.601855 -21.062159 -30.291873 -68.232728 48.628372 0.000000 0.000000 0.000000 
-0.005432 0.630225 -0.000857 -3.332428 -9.106318 24.044231 5.742785 6.094575 54.319584 -3.337399 3.455303 -67.961141 16.905620 22.490429 109.789335 0.000000 0.000000 0.000000 -19.556410 8.256828 46.171709 11.877003 5.951127 -76.251491 -34.501754 -20.522882 128.287964 0.000000 0.000000 0.000000 -1.650857 2.896940 -35.158702 10.204422 8.817835 -89.191793 -9.151991 5.931898 112.192182 1.697498 4.113683 -109.842298 0.000000 0.000000 0.000000 -13.298817 22.436883 -10.994638 -50.204154 17.698242 -36.894568 115.015748 31.288711 84.090488 0.000000 0.000000 0.000000 29.250844 -9.121096 0.191512 55.216674 30.420627 -21.690239 -30.583220 -66.862779 47.750171 0.000000 0.000000 0.000000 
-0.006889 0.635637 -0.001869 -3.766378 -9.962876 23.634618 4.804154 6.972668 54.550011 -2.073655 4.300176 -68.395989 15.496985 22.328357 112.121922 0.000000 0.000000 0.000000 -20.780392 9.072599 45.175610 13.246643 6.908885 -75.304753 -36.118193 -20.472011 128.767555 0.000000 0.000000 0.000000 -0.991266 3.096100 -34.502568 11.900053 9.489717 -87.118352 -8.165561 6.562561 110.213959 -2.741628 3.867335 -110.260147 0.000000 0.000000 0.000000 -12.066067 22.746796 -11.643584 -48.361219 22.148430 -36.263088 114.608565 26.463149 70.591579 0.000000 0.000000 0.000000 30.411870 -9.750539 -0.205193 53.846204 30.646599 -20.490978 -27.909858 -65.073693 42.379831 0.000000 0.000000 0.000000 
-0.008573 0.641287 -0.003398 -3.721314 -9.896024 23.873859 3.238598 7.756390 54.157947 0.385752 5.421682 -67.297115 11.229724 21.782780 111.074652 0.000000 0.000000 0.000000 -20.829474 9.109150 45.288157 14.344421 7.677824 -76.062886 -38.338817 -20.789323 128.360473 0.000000 0.000000 0.000000 -1.073120 3.141934 -35.032976 10.047697 8.372437 -85.221423 -6.568247 3.757427 108.816944 -6.792700 3.735356 -110.891938 0.000000 0.000000 0.000000 -10.593302 23.426004 -12.441370 -47.846219 27.261687 -36.448051 113.715539 21.016277 58.840805 0.000000 0.000000 0.000000 30.385638 -9.728271 -1.098567 53.914696 31.415828 -19.407790 -28.231795 -64.731382 41.307818 0.000000 0.000000 0.000000 
-0.010412 0.643977 -0.004903 -3.958287 -9.734287 23.307630 1.870553 8.526467 54.462325 3.427569 6.727631 -66.297662 7.518778 21.227985 110.537609 0.000000 0.000000 0.000000 -21.238763 9.337058 45.730647 15.608438 8.278271 -75.378924 -40.096386 -21.127040 127.441762 0.000000 0.000000 0.000000 -1.827134 2.926734 -34.898783 14.444012 9.937573 -85.684254 -8.449882 7.756487 110.755622 -5.252157 3.857697 -112.067406 0.000000 0.000000 0.000000 -7.806133 24.227047 -13.989408 -46.600927 31.574779 -38.402316 114.278539 14.955009 47.037314 0.000000 0.000000 0.000000 32.144355 -9.663521 0.773637 52.393284 34.811496 -19.733944 -27.261536 -64.108058 41.876255 0.000000 0.000000 0.000000 
-0.012544 0.646044 -0.006326 -4.133478 -10.123922 23.883749 0.461045 9.545754 54.612108 5.825047 7.980922 -66.260441 4.240287 20.689315 109.597832 0.000000 0.000000 0.000000 -21.561660 9.713969 45.784347 15.451668 8.412323 -76.593078 -39.491158 -20.625724 129.578984 0.000000 0.000000 0.000000 -1.840948 3.084044 -35.439766 13.486454 10.582901 -89.565262 -8.171570 7.108447 115.407677 -10.063751 3.951398 -112.238868 0.000000 0.000000 0.000000 -4.627572 24.672993 -15.413090 -47.035723 37.209590 -42.647959 113.058803 8.438185 35.516010 0.000000 0.000000 0.000000 30.355147 -10.281433 0.634720 54.225968 36.241931 -21.089732 -30.552763 -63.584058 46.708711 0.000000 0.000000 0.000000 
-0.014999 0.647364 -0.006660 -4.078765 -9.446563 23.755501 0.370415 9.485083 55.194136 7.386084 8.484702 -65.756123 2.048165 20.029105 107.265864 0.000000 0.000000 0.000000 -21.225467 9.495380 47.044635 15.966840 8.660259 -77.658734 -40.876809 -20.826785 129.507188 0.000000 0.000000 0.000000 -2.188326 2.884199 -35.459046 13.970185 10.761606 -90.771495 -8.760883 7.729092 116.830595 -8.635412 4.030519 -112.553704 0.000000 0.000000 0.000000 -2.659222 24.495892 -15.940921 -46.817435 41.173901 -45.241388 112.668417 4.760659 27.702405 0.000000 0.000000 0.000000 30.308492 -10.237633 1.160286 54.386193 36.560525 -21.885371 -30.190115 -62.867643 46.889182 0.000000 0.000000 0.000000 
-0.017499 0.648330 -0.006157 -4.557778 -9.479535 24.043355 0.229645 9.571380 55.102182 8.720725 9.001548 -64.800832 -2.533579 18.984221 105.137671 0.000000 0.000000 0.000000 -21.764749 9.730070 46.555912 16.866904 9.080325 -76.925281 -40.725421 -21.385981 127.520889 0.000000 0.000000 0.000000 -1.822009 3.148172 -36.874571 15.897629 11.445994 -90.739764 -9.542623 10.267214 117.502669 -5.651703 4.089336 -111.909243 0.000000 0.000000 0.000000 0.188740 24.696554 -17.044021 -47.326582 45.034181 -48.200847 112.928271 1.756997 21.844280 0.000000 0.000000 0.000000 31.235936 -11.066039 1.872743 54.636912 37.178389 -22.883459 -33.050435 -60.422207 49.344132 0.000000 0.000000 0.000000 
